<?xml version="1.0" standalone="no"?>
<!DOCTYPE svg PUBLIC "-//W3C//DTD SVG 20010904//EN"
 "http://www.w3.org/TR/2001/REC-SVG-20010904/DTD/svg10.dtd">
<svg version="1.0" xmlns="http://www.w3.org/2000/svg"
 width="475.000000pt" height="444.000000pt" viewBox="0 0 475.000000 444.000000"
 preserveAspectRatio="xMidYMid meet">

<g transform="translate(0.000000,444.000000) scale(0.100000,-0.100000)"
fill="#000000" stroke="none">
<path d="M960 4068 c-86 -12 -217 -57 -286 -99 -129 -78 -257 -223 -314 -357
-66 -155 -63 -91 -62 -1342 1 -1092 2 -1138 20 -1210 41 -157 110 -270 233
-384 119 -110 258 -175 423 -196 55 -7 472 -10 1291 -8 1365 4 1253 -3 1432
85 153 74 281 209 359 378 66 143 64 93 64 1346 0 1102 -1 1138 -20 1214 -70
272 -274 480 -547 558 l-78 22 -1225 1 c-715 1 -1252 -2 -1290 -8z m1617 -868
c348 -643 938 -1742 1008 -1877 32 -61 55 -118 52 -126 -3 -8 -26 -17 -59 -20
-92 -11 -1037 -8 -1059 3 -18 10 -19 24 -19 325 0 227 3 316 12 321 6 4 68 6
139 5 86 -2 129 1 134 9 8 13 -393 687 -414 695 -20 8 -34 -7 -125 -134 -115
-161 -773 -1101 -825 -1181 -24 -36 -51 -71 -59 -77 -19 -15 -568 -18 -591 -4
-15 9 -7 21 336 526 206 303 714 1060 975 1450 135 204 252 376 258 383 7 7
25 12 42 10 28 -3 39 -20 195 -308z"/>
</g>
</svg>
